#!OML:ASF C:\Vicon Data\Big\jianyuan-12\jianyuan\Session 1\Capture.male.ASF
:FULLY-SPECIFIED
:DEGREES
14
root -7.936335 16.970417 -22.583350 7.104607 5.045405 6.558922
lowerback -11.812847 -3.127853 -9.403121 
upperback 1.918441 -2.746560 -0.538234 
thorax 9.177648 -1.809446 4.168262 
lowerneck -5.282050 -4.636292 -6.257477 
upperneck 8.342913 -6.418619 7.288057 
head 3.786208 -3.071172 2.908778 
rclavicle 0.000000 0.000000 
rhumerus -46.285749 -33.007707 -70.558040 
rradius 33.449381 
rwrist 36.216969 
rhand -17.676292 -6.813737 
rfingers 0.000000 
rthumb 8.582753 -36.619312 
lclavicle 0.000000 0.000000 
lhumerus -20.456454 18.851461 85.525112 
lradius 35.903209 
lwrist -36.990557 
lhand -10.366067 5.273490 
lfingers 0.000000 
lthumb 15.631138 34.662001 
rfemur -34.924524 2.749318 9.909228 
rtibia 30.656575 
rfoot -13.421802 -8.388151 
rtoes -0.955612 
lfemur 12.433192 -3.483594 -28.718737 
ltibia 11.176399 
lfoot -13.726992 3.414143 
ltoes -34.113907 
15
root -7.950696 16.981589 -22.488068 7.114000 5.052445 6.376799
lowerback -11.943811 -3.099987 -9.269782 
upperback 1.889991 -2.720421 -0.472996 
thorax 9.213578 -1.791654 4.166078 
lowerneck -5.342277 -4.622265 -6.115028 
upperneck 8.451815 -6.398844 7.118393 
head 3.817768 -3.062523 2.832968 
rclavicle 0.000000 0.000000 
rhumerus -46.219421 -33.015202 -70.502815 
rradius 33.358105 
rwrist 36.479596 
rhand -17.765709 -6.815722 
rfingers 0.000000 
rthumb 8.496425 -36.624766 
lclavicle 0.000000 0.000000 
lhumerus -20.794742 19.174398 85.429970 
lradius 35.759764 
lwrist -37.168732 
lhand -10.290967 5.382250 
lfingers 0.000000 
lthumb 15.703411 34.765047 
rfemur -34.750008 2.623317 10.291473 
rtibia 30.918740 
rfoot -13.381325 -8.076329 
rtoes -0.933372 
lfemur 11.980395 -3.425110 -28.405183 
ltibia 12.575740 
lfoot -13.544114 3.296074 
ltoes -33.918245 
16
root -7.968857 16.994601 -22.393673 7.026026 5.009897 6.163948
lowerback -12.018709 -3.094940 -9.079394 
upperback 1.921552 -2.734019 -0.444328 
thorax 9.284096 -1.792125 4.084039 
lowerneck -5.372410 -4.582854 -6.101291 
upperneck 8.465176 -6.351230 7.164804 
head 3.824550 -3.036086 2.847076 
rclavicle 0.000000 0.000000 
rhumerus -46.078300 -32.973257 -70.614025 
rradius 33.316798 
rwrist 36.534674 
rhand -17.684797 -6.650639 
rfingers 0.000000 
rthumb 8.574499 -36.456522 
lclavicle 0.000000 0.000000 
lhumerus -21.101742 19.679620 85.147023 
lradius 35.536751 
lwrist -37.598607 
lhand -10.263312 5.286992 
lfingers 0.000000 
lthumb 15.730051 34.667760 
rfemur -34.456754 2.736474 10.663934 
rtibia 31.138979 
rfoot -13.440329 -7.939362 
rtoes -1.214891 
lfemur 11.554807 -3.396154 -28.072037 
ltibia 14.038585 
lfoot -13.329214 3.287346 
ltoes -33.808755 
17
root -7.981875 17.002535 -22.304904 7.007781 4.996829 6.005344
lowerback -12.068569 -3.073358 -8.946094 
upperback 1.896268 -2.725000 -0.389532 
thorax 9.278638 -1.781029 4.069806 
lowerneck -5.362859 -4.545626 -6.214513 
upperneck 8.469390 -6.302611 7.270423 
head 3.827797 -3.011310 2.900815 
rclavicle 0.000000 0.000000 
rhumerus -45.913091 -32.946995 -70.688280 
rradius 33.300771 
rwrist 36.395582 
rhand -17.567644 -6.756218 
rfingers 0.000000 
rthumb 8.687599 -36.557436 
lclavicle 0.000000 0.000000 
lhumerus -21.406804 20.088071 85.037736 
lradius 35.340244 
lwrist -37.717505 
lhand -10.240586 5.431589 
lfingers 0.000000 
lthumb 15.751929 34.810634 
rfemur -34.251566 2.908979 10.905617 
rtibia 31.344487 
rfoot -13.494707 -7.873724 
rtoes -1.064432 
lfemur 11.079778 -3.302055 -27.799477 
ltibia 15.418376 
lfoot -13.062354 3.323808 
ltoes -34.112884 
18
root -7.996430 17.010660 -22.214969 6.973119 4.983868 5.886545
lowerback -12.091320 -3.034788 -8.894544 
upperback 1.845842 -2.684928 -0.341428 
thorax 9.229618 -1.756998 4.102468 
lowerneck -5.227876 -4.536074 -6.304698 
upperneck 8.454132 -6.302858 7.401384 
head 3.807566 -3.012246 2.958546 
rclavicle 0.000000 0.000000 
rhumerus -45.856140 -32.968040 -70.640640 
rradius 33.132760 
rwrist 36.763439 
rhand -17.719580 -6.830436 
rfingers 0.000000 
rthumb 8.540976 -36.637660 
lclavicle 0.000000 0.000000 
lhumerus -21.797680 20.305940 84.937300 
lradius 35.231360 
lwrist -37.501420 
lhand -10.085528 5.670264 
lfingers 0.000000 
lthumb 15.901240 35.037380 
rfemur -34.032620 2.868450 11.182300 
rtibia 31.567300 
rfoot -13.449500 -7.622598 
rtoes -1.027641 
lfemur 10.689700 -3.141476 -27.554160 
ltibia 16.652839 
lfoot -12.701800 3.378712 
ltoes -34.171300 
19
root -8.012036 17.018763 -22.123858 6.927848 4.984218 5.856315
lowerback -12.160055 -3.040779 -8.844900 
upperback 1.834844 -2.691015 -0.378800 
thorax 9.253140 -1.756674 4.030534 
lowerneck -5.167700 -4.504373 -6.347652 
upperneck 8.471668 -6.274806 7.525184 
head 3.806009 -2.996264 3.006334 
rclavicle 0.000000 0.000000 
rhumerus -45.799419 -33.006961 -70.681704 
rradius 32.979250 
rwrist 37.501465 
rhand -17.892687 -6.764883 
rfingers 0.000000 
rthumb 8.373883 -36.578907 
lclavicle 0.000000 0.000000 
lhumerus -22.197227 20.779538 84.621879 
lradius 35.002805 
lwrist -37.852775 
lhand -10.050936 5.502574 
lfingers 0.000000 
lthumb 15.934597 34.867083 
rfemur -33.789946 2.866053 11.346408 
rtibia 31.804608 
rfoot -13.484243 -7.457277 
rtoes -1.016418 
lfemur 10.365676 -2.874664 -27.357837 
ltibia 17.809345 
lfoot -12.208315 3.346125 
ltoes -34.033877 
20
root -8.030087 17.029453 -22.033208 6.868911 5.008655 5.773139
lowerback -12.200829 -3.038713 -8.802474 
upperback 1.827614 -2.690351 -0.383710 
thorax 9.265920 -1.754122 4.000307 
lowerneck -5.198343 -4.460481 -6.313091 
upperneck 8.570993 -6.227408 7.552762 
head 3.837424 -2.969901 3.010790 
rclavicle 0.000000 0.000000 
rhumerus -45.632100 -32.883935 -70.899887 
rradius 32.990515 
rwrist 37.097914 
rhand -17.751981 -6.747878 
rfingers 0.000000 
rthumb 8.509709 -36.556375 
lclavicle 0.000000 0.000000 
lhumerus -22.618128 21.586775 84.206423 
lradius 34.555187 
lwrist -39.147123 
lhand -10.332596 4.862643 
lfingers 0.000000 
lthumb 15.663316 34.248586 
rfemur -33.515946 2.946203 11.547780 
rtibia 32.016064 
rfoot -13.600408 -7.425058 
rtoes -0.917441 
lfemur 10.035033 -2.555329 -27.081638 
ltibia 18.966453 
lfoot -11.646657 3.330299 
ltoes -33.907465 
21
root -8.046703 17.040527 -21.942016 6.815359 5.023431 5.706477
lowerback -12.216976 -3.013053 -8.811193 
upperback 1.807240 -2.656158 -0.355310 
thorax 9.249844 -1.737725 4.043437 
lowerneck -5.245066 -4.515694 -6.194717 
upperneck 8.705792 -6.304346 7.407200 
head 3.883145 -3.008867 2.940478 
rclavicle 0.000000 0.000000 
rhumerus -45.686550 -33.144117 -70.651158 
rradius 32.748895 
rwrist 38.476874 
rhand -17.988960 -6.428831 
rfingers 0.000000 
rthumb 8.280995 -36.246532 
lclavicle 0.000000 0.000000 
lhumerus -22.982919 22.122737 83.917591 
lradius 34.154911 
lwrist -39.894665 
lhand -10.496320 4.502964 
lfingers 0.000000 
lthumb 15.505729 33.901234 
rfemur -33.229931 2.986676 11.737996 
rtibia 32.207066 
rfoot -13.754881 -7.378381 
rtoes -0.709796 
lfemur 9.677626 -2.305892 -26.857176 
ltibia 20.170077 
lfoot -11.005963 3.363113 
ltoes -33.406743 
22
root -8.061701 17.053106 -21.853168 6.849784 5.185160 5.587754
lowerback -12.325790 -3.047768 -8.713154 
upperback 1.784281 -2.707914 -0.345164 
thorax 9.289589 -1.758166 3.984961 
lowerneck -5.279492 -4.471212 -6.144041 
upperneck 8.750186 -6.250998 7.413184 
head 3.897155 -2.979920 2.936336 
rclavicle 0.000000 0.000000 
rhumerus -45.614012 -33.241951 -70.628971 
rradius 32.484947 
rwrist 39.189788 
rhand -18.420970 -6.094812 
rfingers 0.000000 
rthumb 7.864026 -35.928534 
lclavicle 0.000000 0.000000 
lhumerus -23.336314 22.557819 83.660804 
lradius 33.963798 
lwrist -40.116014 
lhand -10.374063 4.527649 
lfingers 0.000000 
lthumb 15.623421 33.916710 
rfemur -32.999318 2.929229 11.985126 
rtibia 32.368882 
rfoot -13.982034 -7.355567 
rtoes -0.400963 
lfemur 9.179601 -2.216381 -26.543060 
ltibia 21.404777 
lfoot -10.295198 3.383969 
ltoes -33.083788 
23
root -8.076124 17.061561 -21.766164 6.875278 5.201922 5.537865
lowerback -12.444674 -3.046145 -8.684541 
upperback 1.765472 -2.699707 -0.332173 
thorax 9.335519 -1.753928 3.981004 
lowerneck -5.197119 -4.589150 -5.970333 
upperneck 8.722528 -6.403918 7.180785 
head 3.872871 -3.061889 2.829749 
rclavicle 0.000000 0.000000 
rhumerus -45.716132 -33.826483 -70.023162 
rradius 32.138104 
rwrist 39.927602 
rhand -18.603470 -4.701609 
rfingers 0.000000 
rthumb 7.687919 -34.541868 
lclavicle 0.000000 0.000000 
lhumerus -23.710403 22.764866 83.505630 
lradius 33.858286 
lwrist -40.071127 
lhand -10.289277 4.791908 
lfingers 0.000000 
lthumb 15.705126 34.174558 
rfemur -32.775652 2.880541 12.175393 
rtibia 32.516918 
rfoot -14.152403 -7.213122 
rtoes -0.145010 
lfemur 8.670081 -1.820925 -26.263200 
ltibia 22.662095 
lfoot -9.682539 3.250626 
ltoes -32.319259 
